<svg width="119" height="53" viewBox="0 0 119 53" fill="#7B7935" xmlns="http://www.w3.org/2000/svg">
<path d="M84.8933 14.2128L83.5208 8.72285C83.896 8.64314 84.1776 8.31023 84.1776 7.91139V7.02623C84.1776 5.10435 82.614 3.54086 80.6922 3.54086H74.4407V1.71505C74.4407 0.769328 73.6714 0 72.7257 0H40.8592C39.9135 0 39.1442 0.769328 39.1442 1.71505V16.7631C39.1442 17.2214 39.5157 17.593 39.974 17.593C40.4323 17.593 40.8039 17.2215 40.8039 16.7631V1.71505C40.8039 1.68451 40.8287 1.65977 40.8592 1.65977H72.7256C72.7561 1.65977 72.7808 1.68451 72.7808 1.71505V16.7633C72.7808 17.2216 73.1524 17.5932 73.6107 17.5932C74.069 17.5932 74.4406 17.2217 74.4406 16.7633V15.8226H84.23C84.2308 15.8226 84.2314 15.8228 84.2322 15.8228C84.233 15.8228 84.2337 15.8227 84.2344 15.8227C85.439 15.8235 86.4619 16.6141 86.8132 17.7037H84.2328C83.7745 17.7037 83.4029 18.0752 83.4029 18.5335V20.3039C83.4029 21.7377 84.5693 22.9041 86.0031 22.9041H86.9436V26.5554H84.7738C84.0609 24.4972 82.1044 23.0146 79.8069 23.0146C77.5093 23.0146 75.5527 24.4972 74.84 26.5554H74.4404V20.3038C74.4404 19.8455 74.0689 19.4739 73.6105 19.4739C73.1523 19.4739 72.7806 19.8454 72.7806 20.3038V26.5552H55.5631C54.8503 24.497 52.8937 23.0144 50.5962 23.0144C48.2987 23.0144 46.342 24.497 45.6293 26.5552H40.8592C40.8287 26.5552 40.8039 26.5304 40.8039 26.4999V24.6742H44.4C44.8582 24.6742 45.2298 24.3027 45.2298 23.8443C45.2298 23.3859 44.8583 23.0144 44.4 23.0144H36.4334C35.9751 23.0144 35.6035 23.3859 35.6035 23.8443C35.6035 24.3027 35.975 24.6742 36.4334 24.6742H39.1443V26.4999C39.1443 27.4456 39.9136 28.2149 40.8593 28.2149H45.342C45.3418 28.2334 45.3405 28.2517 45.3405 28.2702C45.3405 31.1682 47.6983 33.5259 50.5962 33.5259C53.4941 33.5259 55.8519 31.1682 55.8519 28.2702C55.8519 28.2516 55.8507 28.2334 55.8504 28.2149H74.5526C74.5524 28.2334 74.5512 28.2517 74.5512 28.2702C74.5512 31.1682 76.9089 33.5259 79.8069 33.5259C82.7048 33.5259 85.0626 31.1682 85.0626 28.2702C85.0626 28.2516 85.0613 28.2334 85.0611 28.2149H87.7735C88.2318 28.2149 88.6034 27.8434 88.6034 27.385V18.5333C88.6035 16.3479 86.9911 14.5321 84.8933 14.2128ZM74.4407 5.20052H80.6922C81.6989 5.20052 82.5179 6.01954 82.5179 7.02623V7.0815H74.4407V5.20052ZM74.4407 14.1629V8.74117H81.8147L83.1701 14.1629H74.4407ZM50.5962 31.8664C48.6134 31.8664 47.0002 30.2534 47.0002 28.2704C47.0002 26.2875 48.6134 24.6744 50.5962 24.6744C52.579 24.6744 54.1922 26.2875 54.1922 28.2704C54.1922 30.2534 52.579 31.8664 50.5962 31.8664ZM79.8071 31.8664C77.8242 31.8664 76.211 30.2534 76.211 28.2704C76.211 26.2875 77.8242 24.6744 79.8071 24.6744C81.7899 24.6744 83.4031 26.2875 83.4031 28.2704C83.4031 30.2534 81.7899 31.8664 79.8071 31.8664ZM86.9438 21.2443H86.0033C85.4847 21.2443 85.0628 20.8224 85.0628 20.3038V19.3632H86.9437L86.9438 21.2443Z" fill="#7B7935"/>
<path d="M50.5962 26.5554C49.6505 26.5554 48.8812 27.3247 48.8812 28.2704C48.8812 29.2161 49.6505 29.9855 50.5962 29.9855C51.5419 29.9855 52.3112 29.2161 52.3112 28.2704C52.3112 27.3247 51.5419 26.5554 50.5962 26.5554Z" fill="#7B7935"/>
<path d="M79.8071 26.5554C78.8614 26.5554 78.092 27.3247 78.092 28.2704C78.092 29.2161 78.8614 29.9855 79.8071 29.9855C80.7528 29.9855 81.5221 29.2161 81.5221 28.2704C81.5221 27.3247 80.7528 26.5554 79.8071 26.5554Z" fill="#7B7935"/>
<path d="M70.0701 23.0147H57.6776C57.2193 23.0147 56.8477 23.3862 56.8477 23.8446C56.8477 24.303 57.2192 24.6745 57.6776 24.6745H70.0701C70.5283 24.6745 70.9 24.303 70.9 23.8446C70.9 23.3862 70.5284 23.0147 70.0701 23.0147Z" fill="#7B7935"/>
<path d="M48.8259 19.474H38.2037C37.7455 19.474 37.3738 19.8455 37.3738 20.3039C37.3738 20.7622 37.7454 21.1337 38.2037 21.1337H48.8259C49.2841 21.1337 49.6558 20.7622 49.6558 20.3039C49.6558 19.8455 49.2841 19.474 48.8259 19.474Z" fill="#7B7935"/>
<path d="M64.4607 8.20962C64.1367 7.88561 63.6111 7.88561 63.2871 8.20972L55.9073 15.5895L52.0682 11.7504C51.7441 11.4263 51.2186 11.4263 50.8946 11.7504C50.5705 12.0745 50.5705 12.5998 50.8946 12.9239L55.3206 17.3498C55.4826 17.512 55.695 17.5929 55.9073 17.5929C56.1196 17.5929 56.3321 17.512 56.494 17.3498L64.4606 9.38328C64.7847 9.05907 64.7847 8.53372 64.4607 8.20962Z" fill="#7B7935"/>
<path d="M0 52.2631V33.7787H5.9541C7.58756 33.7787 9.05599 34.1511 10.3594 34.8959C11.6628 35.6323 12.6784 36.6775 13.4062 38.0317C14.1426 39.3774 14.515 40.8881 14.5234 42.5639V43.4145C14.5234 45.1072 14.1637 46.6264 13.4443 47.9721C12.7334 49.3093 11.7262 50.3588 10.4229 51.1205C9.12793 51.8738 7.68066 52.2546 6.08105 52.2631H0ZM4.45605 37.2192V48.8354H6.00488C7.28288 48.8354 8.26465 48.3826 8.9502 47.477C9.63574 46.5629 9.97852 45.2087 9.97852 43.4145V42.6147C9.97852 40.8289 9.63574 39.4832 8.9502 38.5776C8.26465 37.672 7.26595 37.2192 5.9541 37.2192H4.45605Z" fill="#7B7935"/>
<path d="M23.2578 52.517C21.1504 52.517 19.445 51.8907 18.1416 50.6381C16.8382 49.377 16.1865 47.7393 16.1865 45.725V45.3696C16.1865 43.9646 16.4447 42.7247 16.9609 41.6498C17.4857 40.575 18.2474 39.7455 19.2461 39.1615C20.2448 38.5691 21.4297 38.2729 22.8008 38.2729C24.7305 38.2729 26.2539 38.8738 27.3711 40.0756C28.4883 41.269 29.0469 42.9363 29.0469 45.0776V46.7407H20.541C20.6934 47.5108 21.0277 48.116 21.5439 48.5561C22.0602 48.9962 22.7288 49.2162 23.5498 49.2162C24.904 49.2162 25.9619 48.7423 26.7236 47.7944L28.6787 50.1049C28.1455 50.8412 27.388 51.4295 26.4062 51.8696C25.4329 52.3012 24.3835 52.517 23.2578 52.517ZM22.7754 41.5737C21.5228 41.5737 20.778 42.4031 20.541 44.0619H24.8574V43.7319C24.8743 43.0463 24.7008 42.5173 24.3369 42.1449C23.973 41.7641 23.4525 41.5737 22.7754 41.5737Z" fill="#7B7935"/>
<path d="M35.293 52.2631H31.002V32.7631H35.293V52.2631Z" fill="#7B7935"/>
<path d="M42.4531 52.2631H38.1621V38.5268H42.4531V52.2631ZM37.9082 34.9848C37.9082 34.3754 38.1283 33.8761 38.5684 33.4867C39.0085 33.0974 39.5798 32.9028 40.2822 32.9028C40.9847 32.9028 41.556 33.0974 41.9961 33.4867C42.4362 33.8761 42.6562 34.3754 42.6562 34.9848C42.6562 35.5942 42.4362 36.0935 41.9961 36.4828C41.556 36.8722 40.9847 37.0668 40.2822 37.0668C39.5798 37.0668 39.0085 36.8722 38.5684 36.4828C38.1283 36.0935 37.9082 35.5942 37.9082 34.9848Z" fill="#7B7935"/>
<path d="M50.5781 47.1723L52.749 38.5268H57.2559L52.7744 52.2631H48.4072L43.9258 38.5268H48.4453L50.5781 47.1723Z" fill="#7B7935"/>
<path d="M65 52.517C62.8926 52.517 61.1872 51.8907 59.8838 50.6381C58.5804 49.377 57.9287 47.7393 57.9287 45.725V45.3696C57.9287 43.9646 58.1868 42.7247 58.7031 41.6498C59.2279 40.575 59.9896 39.7455 60.9883 39.1615C61.987 38.5691 63.1719 38.2729 64.543 38.2729C66.4727 38.2729 67.9961 38.8738 69.1133 40.0756C70.2305 41.269 70.7891 42.9363 70.7891 45.0776V46.7407H62.2832C62.4355 47.5108 62.7699 48.116 63.2861 48.5561C63.8024 48.9962 64.471 49.2162 65.292 49.2162C66.6462 49.2162 67.7041 48.7423 68.4658 47.7944L70.4209 50.1049C69.8877 50.8412 69.1302 51.4295 68.1484 51.8696C67.1751 52.3012 66.1256 52.517 65 52.517ZM64.5176 41.5737C63.265 41.5737 62.5202 42.4031 62.2832 44.0619H66.5996V43.7319C66.6165 43.0463 66.443 42.5173 66.0791 42.1449C65.7152 41.7641 65.1947 41.5737 64.5176 41.5737Z" fill="#7B7935"/>
<path d="M80.8311 42.3989L79.4219 42.2973C78.0762 42.2973 77.2129 42.7205 76.832 43.5668V52.2631H72.5537V38.5268H76.5654L76.7051 40.2914C77.4245 38.9457 78.4274 38.2729 79.7139 38.2729C80.1709 38.2729 80.5687 38.3237 80.9072 38.4252L80.8311 42.3989Z" fill="#7B7935"/>
<path d="M88.0088 33.7787L94.8262 50.0922L101.669 33.7787H103.751V52.2631H102.189V44.2143L102.316 35.9623L95.4355 52.2631H94.2295L87.374 36.0258L87.501 44.1635V52.2631H85.9395V33.7787H88.0088Z" fill="#7B7935"/>
<path d="M113.399 52.517C112.231 52.517 111.174 52.2293 110.226 51.6537C109.286 51.0782 108.554 50.2784 108.029 49.2543C107.505 48.2218 107.242 47.0665 107.242 45.7885V45.2426C107.242 43.9223 107.496 42.7332 108.004 41.6752C108.52 40.6173 109.235 39.7878 110.149 39.1869C111.063 38.5776 112.054 38.2729 113.12 38.2729C114.787 38.2729 116.108 38.8442 117.081 39.9867C118.063 41.1209 118.554 42.6739 118.554 44.6459V45.4965H108.753V45.7885C108.753 47.3458 109.197 48.6449 110.086 49.686C110.983 50.7185 112.109 51.2348 113.463 51.2348C114.275 51.2348 114.991 51.0867 115.608 50.7905C116.235 50.4942 116.802 50.0203 117.31 49.3686L118.262 50.0922C117.145 51.7087 115.524 52.517 113.399 52.517ZM113.12 39.5678C111.978 39.5678 111.013 39.9867 110.226 40.8246C109.447 41.6625 108.973 42.7882 108.804 44.2016H117.043V44.0365C117.001 42.7162 116.624 41.6414 115.913 40.8119C115.202 39.9825 114.271 39.5678 113.12 39.5678Z" fill="#7B7935"/>
</svg>
